<svg fill="none" height="279" viewBox="0 0 318 279" width="318" xmlns="http://www.w3.org/2000/svg" xmlns:xlink="http://www.w3.org/1999/xlink"><clipPath id="a"><path d="m0 0h318v279h-318z"/></clipPath><mask id="b" height="277" maskUnits="userSpaceOnUse" width="311" x="3" y="1"><path clip-rule="evenodd" d="m309.34 124.5c5.359 9.282 5.359 20.718 0 30l-62.43 108.131c-5.359 9.282-15.263 15-25.981 15h-124.8585c-10.718 0-20.6218-5.718-25.9808-15l-62.42944-108.131c-5.35899-9.282-5.35899-20.718-.00001-30l62.42945-108.131c5.359-9.28208 15.2628-15.00005 25.9808-15.00005h124.8585c10.718 0 20.622 5.71797 25.981 14.99995z" fill="#fff" fill-rule="evenodd"/></mask><g clip-path="url(#a)"><g mask="url(#b)"><path d="m-58.5-12h455v303h-455z" fill="#ffe01c"/></g><g clip-rule="evenodd" fill-rule="evenodd"><path d="m157.794 144.049-50.342-73.889v63.426l28.746 42.223 21.547-31.698z" fill="#1a1918"/><path d="m157.794 144.049 21.681 31.829 28.563-41.763v-63.955z" fill="#ed9d4a"/><path d="m157.745 144.111-21.547 31.698 21.618 31.739 21.659-31.67-21.681-31.829z" fill="#ba7730"/><path d="m71.7 207.633h35.752v-74.047l-35.752-52.478z" fill="#4cb2d4"/><path d="m71.7 70.16v10.948l35.752 52.478v-63.426z" fill="#1c82ad"/><path d="m208.038 134.115v73.518h35.738v-125.7639z" fill="#c02439"/><path d="m243.776 70.16h-35.738v63.955l35.738-52.2459z" fill="#8f212f"/></g></g></svg>